%TF.GenerationSoftware,KiCad,Pcbnew,9.0.6*%
%TF.CreationDate,2026-03-04T15:36:51+05:30*%
%TF.ProjectId,PCB,5043422e-6b69-4636-9164-5f7063625858,rev?*%
%TF.SameCoordinates,Original*%
%TF.FileFunction,Copper,L1,Top*%
%TF.FilePolarity,Positive*%
%FSLAX46Y46*%
G04 Gerber Fmt 4.6, Leading zero omitted, Abs format (unit mm)*
G04 Created by KiCad (PCBNEW 9.0.6) date 2026-03-04 15:36:51*
%MOMM*%
%LPD*%
G01*
G04 APERTURE LIST*
G04 Aperture macros list*
%AMRoundRect*
0 Rectangle with rounded corners*
0 $1 Rounding radius*
0 $2 $3 $4 $5 $6 $7 $8 $9 X,Y pos of 4 corners*
0 Add a 4 corners polygon primitive as box body*
4,1,4,$2,$3,$4,$5,$6,$7,$8,$9,$2,$3,0*
0 Add four circle primitives for the rounded corners*
1,1,$1+$1,$2,$3*
1,1,$1+$1,$4,$5*
1,1,$1+$1,$6,$7*
1,1,$1+$1,$8,$9*
0 Add four rect primitives between the rounded corners*
20,1,$1+$1,$2,$3,$4,$5,0*
20,1,$1+$1,$4,$5,$6,$7,0*
20,1,$1+$1,$6,$7,$8,$9,0*
20,1,$1+$1,$8,$9,$2,$3,0*%
%AMFreePoly0*
4,1,18,-0.410000,0.265000,0.000000,0.675000,0.328000,0.675000,0.359380,0.668758,0.385983,0.650983,0.403758,0.624380,0.410000,0.593000,0.410000,-0.593000,0.403758,-0.624380,0.385983,-0.650983,0.359380,-0.668758,0.328000,-0.675000,-0.328000,-0.675000,-0.359380,-0.668758,-0.385983,-0.650983,-0.403758,-0.624380,-0.410000,-0.593000,-0.410000,0.265000,-0.410000,0.265000,$1*%
G04 Aperture macros list end*
%TA.AperFunction,SMDPad,CuDef*%
%ADD10RoundRect,0.082000X0.328000X0.593000X-0.328000X0.593000X-0.328000X-0.593000X0.328000X-0.593000X0*%
%TD*%
%TA.AperFunction,SMDPad,CuDef*%
%ADD11FreePoly0,180.000000*%
%TD*%
%TA.AperFunction,ComponentPad*%
%ADD12R,1.398000X1.398000*%
%TD*%
%TA.AperFunction,ComponentPad*%
%ADD13C,1.398000*%
%TD*%
%TA.AperFunction,ComponentPad*%
%ADD14O,1.600000X1.600000*%
%TD*%
%TA.AperFunction,ComponentPad*%
%ADD15R,1.600000X1.600000*%
%TD*%
%TA.AperFunction,ViaPad*%
%ADD16C,0.600000*%
%TD*%
%TA.AperFunction,Conductor*%
%ADD17C,0.200000*%
%TD*%
G04 APERTURE END LIST*
D10*
%TO.P,LED1,1,VDD*%
%TO.N,VCC*%
X135500000Y-82050000D03*
%TO.P,LED1,2,DOUT*%
%TO.N,Net-(LED1-DOUT)*%
X137000000Y-82050000D03*
%TO.P,LED1,3,DIN*%
%TO.N,LED INPUT*%
X135500000Y-87500000D03*
D11*
%TO.P,LED1,4,VSS*%
%TO.N,GND*%
X137000000Y-87500000D03*
%TD*%
D12*
%TO.P,J1,1,1*%
%TO.N,GND*%
X171130000Y-61750000D03*
D13*
%TO.P,J1,2,2*%
%TO.N,VCC*%
X173670000Y-61750000D03*
%TO.P,J1,3,3*%
%TO.N,SCL*%
X176210000Y-61750000D03*
%TO.P,J1,4,4*%
%TO.N,SDA*%
X178750000Y-61750000D03*
%TO.P,J1,5,5*%
%TO.N,unconnected-(J1-Pad5)*%
X181290000Y-61750000D03*
%TD*%
D11*
%TO.P,LED5,4,VSS*%
%TO.N,GND*%
X165750000Y-88725000D03*
D10*
%TO.P,LED5,3,DIN*%
%TO.N,Net-(LED4-DOUT)*%
X164250000Y-88725000D03*
%TO.P,LED5,2,DOUT*%
%TO.N,unconnected-(LED5-DOUT-Pad2)*%
X165750000Y-83275000D03*
%TO.P,LED5,1,VDD*%
%TO.N,VCC*%
X164250000Y-83275000D03*
%TD*%
D11*
%TO.P,LED4,4,VSS*%
%TO.N,GND*%
X159750000Y-88475000D03*
D10*
%TO.P,LED4,3,DIN*%
%TO.N,Net-(LED3-DOUT)*%
X158250000Y-88475000D03*
%TO.P,LED4,2,DOUT*%
%TO.N,Net-(LED4-DOUT)*%
X159750000Y-83025000D03*
%TO.P,LED4,1,VDD*%
%TO.N,VCC*%
X158250000Y-83025000D03*
%TD*%
D11*
%TO.P,LED3,4,VSS*%
%TO.N,GND*%
X152500000Y-88225000D03*
D10*
%TO.P,LED3,3,DIN*%
%TO.N,Net-(LED2-DOUT)*%
X151000000Y-88225000D03*
%TO.P,LED3,2,DOUT*%
%TO.N,Net-(LED3-DOUT)*%
X152500000Y-82775000D03*
%TO.P,LED3,1,VDD*%
%TO.N,VCC*%
X151000000Y-82775000D03*
%TD*%
D11*
%TO.P,LED2,4,VSS*%
%TO.N,GND*%
X144750000Y-87975000D03*
D10*
%TO.P,LED2,3,DIN*%
%TO.N,Net-(LED1-DOUT)*%
X143250000Y-87975000D03*
%TO.P,LED2,2,DOUT*%
%TO.N,Net-(LED2-DOUT)*%
X144750000Y-82525000D03*
%TO.P,LED2,1,VDD*%
%TO.N,VCC*%
X143250000Y-82525000D03*
%TD*%
D14*
%TO.P,A1,30,VIN*%
%TO.N,unconnected-(A1-VIN-Pad30)*%
X158650000Y-76740000D03*
%TO.P,A1,29,GND*%
%TO.N,GND*%
X156110000Y-76740000D03*
%TO.P,A1,28,~{RESET}*%
%TO.N,unconnected-(A1-~{RESET}-Pad28)*%
X153570000Y-76740000D03*
%TO.P,A1,27,+5V*%
%TO.N,VCC*%
X151030000Y-76740000D03*
%TO.P,A1,26,A7*%
%TO.N,unconnected-(A1-A7-Pad26)*%
X148490000Y-76740000D03*
%TO.P,A1,25,A6*%
%TO.N,unconnected-(A1-A6-Pad25)*%
X145950000Y-76740000D03*
%TO.P,A1,24,SCL/A5*%
%TO.N,SCL*%
X143410000Y-76740000D03*
%TO.P,A1,23,SDA/A4*%
%TO.N,SDA*%
X140870000Y-76740000D03*
%TO.P,A1,22,A3*%
%TO.N,unconnected-(A1-A3-Pad22)*%
X138330000Y-76740000D03*
%TO.P,A1,21,A2*%
%TO.N,unconnected-(A1-A2-Pad21)*%
X135790000Y-76740000D03*
%TO.P,A1,20,A1*%
%TO.N,unconnected-(A1-A1-Pad20)*%
X133250000Y-76740000D03*
%TO.P,A1,19,A0*%
%TO.N,unconnected-(A1-A0-Pad19)*%
X130710000Y-76740000D03*
%TO.P,A1,18,AREF*%
%TO.N,unconnected-(A1-AREF-Pad18)*%
X128170000Y-76740000D03*
%TO.P,A1,17,3V3*%
%TO.N,unconnected-(A1-3V3-Pad17)*%
X125630000Y-76740000D03*
%TO.P,A1,16,SCK*%
%TO.N,unconnected-(A1-SCK-Pad16)*%
X123090000Y-76740000D03*
%TO.P,A1,15,MISO*%
%TO.N,unconnected-(A1-MISO-Pad15)*%
X123090000Y-61500000D03*
%TO.P,A1,14,MOSI*%
%TO.N,unconnected-(A1-MOSI-Pad14)*%
X125630000Y-61500000D03*
%TO.P,A1,13,D10*%
%TO.N,unconnected-(A1-D10-Pad13)*%
X128170000Y-61500000D03*
%TO.P,A1,12,D9*%
%TO.N,unconnected-(A1-D9-Pad12)*%
X130710000Y-61500000D03*
%TO.P,A1,11,D8*%
%TO.N,unconnected-(A1-D8-Pad11)*%
X133250000Y-61500000D03*
%TO.P,A1,10,D7*%
%TO.N,unconnected-(A1-D7-Pad10)*%
X135790000Y-61500000D03*
%TO.P,A1,9,D6*%
%TO.N,LED INPUT*%
X138330000Y-61500000D03*
%TO.P,A1,8,D5*%
%TO.N,unconnected-(A1-D5-Pad8)*%
X140870000Y-61500000D03*
%TO.P,A1,7,D4*%
%TO.N,unconnected-(A1-D4-Pad7)*%
X143410000Y-61500000D03*
%TO.P,A1,6,D3*%
%TO.N,unconnected-(A1-D3-Pad6)*%
X145950000Y-61500000D03*
%TO.P,A1,5,D2*%
%TO.N,unconnected-(A1-D2-Pad5)*%
X148490000Y-61500000D03*
%TO.P,A1,4,GND*%
%TO.N,GND*%
X151030000Y-61500000D03*
%TO.P,A1,3,~{RESET}*%
%TO.N,unconnected-(A1-~{RESET}-Pad3)*%
X153570000Y-61500000D03*
%TO.P,A1,2,RX1*%
%TO.N,unconnected-(A1-RX1-Pad2)*%
X156110000Y-61500000D03*
D15*
%TO.P,A1,1,TX1*%
%TO.N,unconnected-(A1-TX1-Pad1)*%
X158650000Y-61500000D03*
%TD*%
D16*
%TO.N,GND*%
X156000000Y-75250000D03*
X153250000Y-72750000D03*
X169000000Y-91250000D03*
X162750000Y-79500000D03*
X163750000Y-59500000D03*
%TO.N,SCL*%
X176250000Y-66750000D03*
%TO.N,SDA*%
X177000000Y-65000000D03*
%TD*%
D17*
%TO.N,GND*%
X156000000Y-76630000D02*
X156110000Y-76740000D01*
X156000000Y-75250000D02*
X156000000Y-76630000D01*
X151030000Y-70530000D02*
X153250000Y-72750000D01*
X151030000Y-61500000D02*
X151030000Y-70530000D01*
X165500000Y-91250000D02*
X164000000Y-89750000D01*
X169000000Y-91250000D02*
X165500000Y-91250000D01*
X164000000Y-89750000D02*
X164725000Y-89750000D01*
X158870000Y-79500000D02*
X162750000Y-79500000D01*
X156110000Y-76740000D02*
X158870000Y-79500000D01*
%TO.N,LED INPUT*%
X125750000Y-87500000D02*
X135500000Y-87500000D01*
X119750000Y-81500000D02*
X125750000Y-87500000D01*
X119750000Y-75500000D02*
X119750000Y-81500000D01*
X121250000Y-74000000D02*
X119750000Y-75500000D01*
X127500000Y-74000000D02*
X121250000Y-74000000D01*
X138330000Y-63170000D02*
X127500000Y-74000000D01*
X138330000Y-61500000D02*
X138330000Y-63170000D01*
%TO.N,GND*%
X170250000Y-59500000D02*
X171130000Y-60380000D01*
X171130000Y-60380000D02*
X171130000Y-61750000D01*
X163750000Y-59500000D02*
X170250000Y-59500000D01*
%TO.N,SDA*%
X177000000Y-63750000D02*
X177000000Y-63500000D01*
%TO.N,SCL*%
X176210000Y-66710000D02*
X176250000Y-66750000D01*
X176210000Y-61750000D02*
X176210000Y-66710000D01*
%TO.N,VCC*%
X154750000Y-80460000D02*
X154750000Y-81500000D01*
X151030000Y-76740000D02*
X154750000Y-80460000D01*
X154750000Y-81500000D02*
X152275000Y-81500000D01*
X157440000Y-70330000D02*
X173670000Y-70330000D01*
X151030000Y-76740000D02*
X157440000Y-70330000D01*
X173670000Y-70330000D02*
X173670000Y-61750000D01*
X162500000Y-81500000D02*
X173670000Y-70330000D01*
X162475000Y-81500000D02*
X162500000Y-81500000D01*
%TO.N,GND*%
X164725000Y-89750000D02*
X165750000Y-88725000D01*
X161000000Y-89750000D02*
X164000000Y-89750000D01*
X159750000Y-88500000D02*
X161000000Y-89750000D01*
X159750000Y-88475000D02*
X159750000Y-88500000D01*
X158500000Y-89725000D02*
X159750000Y-88475000D01*
X158500000Y-89750000D02*
X158500000Y-89725000D01*
X154025000Y-89750000D02*
X158500000Y-89750000D01*
X152500000Y-88225000D02*
X154025000Y-89750000D01*
X151250000Y-89500000D02*
X151250000Y-89475000D01*
X146275000Y-89500000D02*
X151250000Y-89500000D01*
X144750000Y-87975000D02*
X146275000Y-89500000D01*
X151250000Y-89475000D02*
X152500000Y-88225000D01*
X144500000Y-89500000D02*
X144750000Y-89250000D01*
X139000000Y-89500000D02*
X144500000Y-89500000D01*
X137000000Y-87500000D02*
X139000000Y-89500000D01*
X144750000Y-89250000D02*
X144750000Y-87975000D01*
%TO.N,VCC*%
X143525000Y-80750000D02*
X136800000Y-80750000D01*
X136800000Y-80750000D02*
X135500000Y-82050000D01*
X144275000Y-81500000D02*
X143525000Y-80750000D01*
X144275000Y-81500000D02*
X143250000Y-82525000D01*
X152275000Y-81500000D02*
X144275000Y-81500000D01*
X152275000Y-81500000D02*
X151000000Y-82775000D01*
X159250000Y-81500000D02*
X154750000Y-81500000D01*
X159250000Y-81500000D02*
X159000000Y-81500000D01*
X162475000Y-81500000D02*
X159250000Y-81500000D01*
X158250000Y-82250000D02*
X158250000Y-83025000D01*
X164250000Y-83275000D02*
X162475000Y-81500000D01*
X159000000Y-81500000D02*
X158250000Y-82250000D01*
%TO.N,Net-(LED4-DOUT)*%
X162975000Y-88725000D02*
X164250000Y-88725000D01*
X161500000Y-87250000D02*
X162975000Y-88725000D01*
X161500000Y-83750000D02*
X161500000Y-87250000D01*
X160775000Y-83025000D02*
X161500000Y-83750000D01*
X159750000Y-83025000D02*
X160775000Y-83025000D01*
%TO.N,Net-(LED3-DOUT)*%
X155500000Y-86250000D02*
X157725000Y-88475000D01*
X154025000Y-82775000D02*
X155500000Y-84250000D01*
X155500000Y-84250000D02*
X155500000Y-86250000D01*
X157725000Y-88475000D02*
X158250000Y-88475000D01*
X152500000Y-82775000D02*
X154025000Y-82775000D01*
%TO.N,Net-(LED2-DOUT)*%
X147750000Y-87000000D02*
X148975000Y-88225000D01*
X147750000Y-84250000D02*
X147750000Y-87000000D01*
X146025000Y-82525000D02*
X147750000Y-84250000D01*
X144750000Y-82525000D02*
X146025000Y-82525000D01*
X148975000Y-88225000D02*
X151000000Y-88225000D01*
%TO.N,Net-(LED1-DOUT)*%
X141975000Y-87975000D02*
X143250000Y-87975000D01*
X139750000Y-85750000D02*
X141975000Y-87975000D01*
X139750000Y-83000000D02*
X139750000Y-85750000D01*
X138750000Y-82000000D02*
X139750000Y-83000000D01*
X137000000Y-82050000D02*
X137050000Y-82000000D01*
X137050000Y-82000000D02*
X138750000Y-82000000D01*
%TO.N,SDA*%
X177000000Y-65000000D02*
X177000000Y-63750000D01*
X177000000Y-63500000D02*
X178750000Y-61750000D01*
%TD*%
M02*
