M48
; DRILL file {KiCad 9.0.6} date 2026-03-04T15:36:48+0530
; FORMAT={-:-/ absolute / metric / decimal}
; #@! TF.CreationDate,2026-03-04T15:36:48+05:30
; #@! TF.GenerationSoftware,Kicad,Pcbnew,9.0.6
; #@! TF.FileFunction,Plated,1,2,PTH
FMAT,2
METRIC
; #@! TA.AperFunction,Plated,PTH,ViaDrill
T1C0.300
; #@! TA.AperFunction,Plated,PTH,ComponentDrill
T2C0.890
; #@! TA.AperFunction,Plated,PTH,ComponentDrill
T3C1.000
%
G90
G05
T1
X153.25Y-72.75
X156.0Y-75.25
X162.75Y-79.5
X163.75Y-59.5
X169.0Y-91.25
X176.25Y-66.75
X177.0Y-65.0
T2
X171.13Y-61.75
X173.67Y-61.75
X176.21Y-61.75
X178.75Y-61.75
X181.29Y-61.75
T3
X123.09Y-61.5
X123.09Y-76.74
X125.63Y-61.5
X125.63Y-76.74
X128.17Y-61.5
X128.17Y-76.74
X130.71Y-61.5
X130.71Y-76.74
X133.25Y-61.5
X133.25Y-76.74
X135.79Y-61.5
X135.79Y-76.74
X138.33Y-61.5
X138.33Y-76.74
X140.87Y-61.5
X140.87Y-76.74
X143.41Y-61.5
X143.41Y-76.74
X145.95Y-61.5
X145.95Y-76.74
X148.49Y-61.5
X148.49Y-76.74
X151.03Y-61.5
X151.03Y-76.74
X153.57Y-61.5
X153.57Y-76.74
X156.11Y-61.5
X156.11Y-76.74
X158.65Y-61.5
X158.65Y-76.74
M30
