%TF.GenerationSoftware,KiCad,Pcbnew,9.0.6*%
%TF.CreationDate,2026-03-04T15:36:51+05:30*%
%TF.ProjectId,PCB,5043422e-6b69-4636-9164-5f7063625858,rev?*%
%TF.SameCoordinates,Original*%
%TF.FileFunction,Copper,L2,Bot*%
%TF.FilePolarity,Positive*%
%FSLAX46Y46*%
G04 Gerber Fmt 4.6, Leading zero omitted, Abs format (unit mm)*
G04 Created by KiCad (PCBNEW 9.0.6) date 2026-03-04 15:36:51*
%MOMM*%
%LPD*%
G01*
G04 APERTURE LIST*
%TA.AperFunction,ComponentPad*%
%ADD10R,1.398000X1.398000*%
%TD*%
%TA.AperFunction,ComponentPad*%
%ADD11C,1.398000*%
%TD*%
%TA.AperFunction,ComponentPad*%
%ADD12O,1.600000X1.600000*%
%TD*%
%TA.AperFunction,ComponentPad*%
%ADD13R,1.600000X1.600000*%
%TD*%
%TA.AperFunction,ViaPad*%
%ADD14C,0.600000*%
%TD*%
%TA.AperFunction,Conductor*%
%ADD15C,0.200000*%
%TD*%
G04 APERTURE END LIST*
D10*
%TO.P,J1,1,1*%
%TO.N,GND*%
X171130000Y-61750000D03*
D11*
%TO.P,J1,2,2*%
%TO.N,VCC*%
X173670000Y-61750000D03*
%TO.P,J1,3,3*%
%TO.N,SCL*%
X176210000Y-61750000D03*
%TO.P,J1,4,4*%
%TO.N,SDA*%
X178750000Y-61750000D03*
%TO.P,J1,5,5*%
%TO.N,unconnected-(J1-Pad5)*%
X181290000Y-61750000D03*
%TD*%
D12*
%TO.P,A1,30,VIN*%
%TO.N,unconnected-(A1-VIN-Pad30)*%
X158650000Y-76740000D03*
%TO.P,A1,29,GND*%
%TO.N,GND*%
X156110000Y-76740000D03*
%TO.P,A1,28,~{RESET}*%
%TO.N,unconnected-(A1-~{RESET}-Pad28)*%
X153570000Y-76740000D03*
%TO.P,A1,27,+5V*%
%TO.N,VCC*%
X151030000Y-76740000D03*
%TO.P,A1,26,A7*%
%TO.N,unconnected-(A1-A7-Pad26)*%
X148490000Y-76740000D03*
%TO.P,A1,25,A6*%
%TO.N,unconnected-(A1-A6-Pad25)*%
X145950000Y-76740000D03*
%TO.P,A1,24,SCL/A5*%
%TO.N,SCL*%
X143410000Y-76740000D03*
%TO.P,A1,23,SDA/A4*%
%TO.N,SDA*%
X140870000Y-76740000D03*
%TO.P,A1,22,A3*%
%TO.N,unconnected-(A1-A3-Pad22)*%
X138330000Y-76740000D03*
%TO.P,A1,21,A2*%
%TO.N,unconnected-(A1-A2-Pad21)*%
X135790000Y-76740000D03*
%TO.P,A1,20,A1*%
%TO.N,unconnected-(A1-A1-Pad20)*%
X133250000Y-76740000D03*
%TO.P,A1,19,A0*%
%TO.N,unconnected-(A1-A0-Pad19)*%
X130710000Y-76740000D03*
%TO.P,A1,18,AREF*%
%TO.N,unconnected-(A1-AREF-Pad18)*%
X128170000Y-76740000D03*
%TO.P,A1,17,3V3*%
%TO.N,unconnected-(A1-3V3-Pad17)*%
X125630000Y-76740000D03*
%TO.P,A1,16,SCK*%
%TO.N,unconnected-(A1-SCK-Pad16)*%
X123090000Y-76740000D03*
%TO.P,A1,15,MISO*%
%TO.N,unconnected-(A1-MISO-Pad15)*%
X123090000Y-61500000D03*
%TO.P,A1,14,MOSI*%
%TO.N,unconnected-(A1-MOSI-Pad14)*%
X125630000Y-61500000D03*
%TO.P,A1,13,D10*%
%TO.N,unconnected-(A1-D10-Pad13)*%
X128170000Y-61500000D03*
%TO.P,A1,12,D9*%
%TO.N,unconnected-(A1-D9-Pad12)*%
X130710000Y-61500000D03*
%TO.P,A1,11,D8*%
%TO.N,unconnected-(A1-D8-Pad11)*%
X133250000Y-61500000D03*
%TO.P,A1,10,D7*%
%TO.N,unconnected-(A1-D7-Pad10)*%
X135790000Y-61500000D03*
%TO.P,A1,9,D6*%
%TO.N,LED INPUT*%
X138330000Y-61500000D03*
%TO.P,A1,8,D5*%
%TO.N,unconnected-(A1-D5-Pad8)*%
X140870000Y-61500000D03*
%TO.P,A1,7,D4*%
%TO.N,unconnected-(A1-D4-Pad7)*%
X143410000Y-61500000D03*
%TO.P,A1,6,D3*%
%TO.N,unconnected-(A1-D3-Pad6)*%
X145950000Y-61500000D03*
%TO.P,A1,5,D2*%
%TO.N,unconnected-(A1-D2-Pad5)*%
X148490000Y-61500000D03*
%TO.P,A1,4,GND*%
%TO.N,GND*%
X151030000Y-61500000D03*
%TO.P,A1,3,~{RESET}*%
%TO.N,unconnected-(A1-~{RESET}-Pad3)*%
X153570000Y-61500000D03*
%TO.P,A1,2,RX1*%
%TO.N,unconnected-(A1-RX1-Pad2)*%
X156110000Y-61500000D03*
D13*
%TO.P,A1,1,TX1*%
%TO.N,unconnected-(A1-TX1-Pad1)*%
X158650000Y-61500000D03*
%TD*%
D14*
%TO.N,GND*%
X156000000Y-75250000D03*
X153250000Y-72750000D03*
X169000000Y-91250000D03*
X162750000Y-79500000D03*
X163750000Y-59500000D03*
%TO.N,SCL*%
X176250000Y-66750000D03*
%TO.N,SDA*%
X177000000Y-65000000D03*
%TD*%
D15*
%TO.N,GND*%
X153250000Y-72750000D02*
X153500000Y-72750000D01*
X153500000Y-72750000D02*
X156000000Y-75250000D01*
X169000000Y-82250000D02*
X169000000Y-91250000D01*
X168500000Y-81750000D02*
X169000000Y-82250000D01*
X166250000Y-79500000D02*
X168500000Y-81750000D01*
X162750000Y-79500000D02*
X166250000Y-79500000D01*
X153030000Y-59500000D02*
X163750000Y-59500000D01*
X151030000Y-61500000D02*
X153030000Y-59500000D01*
%TO.N,SCL*%
X176250000Y-66750000D02*
X153400000Y-66750000D01*
X153400000Y-66750000D02*
X143410000Y-76740000D01*
%TO.N,SDA*%
X140870000Y-76740000D02*
X152610000Y-65000000D01*
X152610000Y-65000000D02*
X177000000Y-65000000D01*
%TD*%
M02*
