%TF.GenerationSoftware,KiCad,Pcbnew,9.0.6*%
%TF.CreationDate,2026-03-04T15:36:51+05:30*%
%TF.ProjectId,PCB,5043422e-6b69-4636-9164-5f7063625858,rev?*%
%TF.SameCoordinates,Original*%
%TF.FileFunction,Legend,Bot*%
%TF.FilePolarity,Positive*%
%FSLAX46Y46*%
G04 Gerber Fmt 4.6, Leading zero omitted, Abs format (unit mm)*
G04 Created by KiCad (PCBNEW 9.0.6) date 2026-03-04 15:36:51*
%MOMM*%
%LPD*%
G01*
G04 APERTURE LIST*
%ADD10C,0.100000*%
G04 APERTURE END LIST*
D10*
X184112782Y-77348609D02*
X183969925Y-77396228D01*
X183969925Y-77396228D02*
X183922306Y-77443847D01*
X183922306Y-77443847D02*
X183874687Y-77539085D01*
X183874687Y-77539085D02*
X183874687Y-77681942D01*
X183874687Y-77681942D02*
X183922306Y-77777180D01*
X183922306Y-77777180D02*
X183969925Y-77824800D01*
X183969925Y-77824800D02*
X184065163Y-77872419D01*
X184065163Y-77872419D02*
X184446115Y-77872419D01*
X184446115Y-77872419D02*
X184446115Y-76872419D01*
X184446115Y-76872419D02*
X184112782Y-76872419D01*
X184112782Y-76872419D02*
X184017544Y-76920038D01*
X184017544Y-76920038D02*
X183969925Y-76967657D01*
X183969925Y-76967657D02*
X183922306Y-77062895D01*
X183922306Y-77062895D02*
X183922306Y-77158133D01*
X183922306Y-77158133D02*
X183969925Y-77253371D01*
X183969925Y-77253371D02*
X184017544Y-77300990D01*
X184017544Y-77300990D02*
X184112782Y-77348609D01*
X184112782Y-77348609D02*
X184446115Y-77348609D01*
X183017544Y-77872419D02*
X183017544Y-77348609D01*
X183017544Y-77348609D02*
X183065163Y-77253371D01*
X183065163Y-77253371D02*
X183160401Y-77205752D01*
X183160401Y-77205752D02*
X183350877Y-77205752D01*
X183350877Y-77205752D02*
X183446115Y-77253371D01*
X183017544Y-77824800D02*
X183112782Y-77872419D01*
X183112782Y-77872419D02*
X183350877Y-77872419D01*
X183350877Y-77872419D02*
X183446115Y-77824800D01*
X183446115Y-77824800D02*
X183493734Y-77729561D01*
X183493734Y-77729561D02*
X183493734Y-77634323D01*
X183493734Y-77634323D02*
X183446115Y-77539085D01*
X183446115Y-77539085D02*
X183350877Y-77491466D01*
X183350877Y-77491466D02*
X183112782Y-77491466D01*
X183112782Y-77491466D02*
X183017544Y-77443847D01*
X182112782Y-77824800D02*
X182208020Y-77872419D01*
X182208020Y-77872419D02*
X182398496Y-77872419D01*
X182398496Y-77872419D02*
X182493734Y-77824800D01*
X182493734Y-77824800D02*
X182541353Y-77777180D01*
X182541353Y-77777180D02*
X182588972Y-77681942D01*
X182588972Y-77681942D02*
X182588972Y-77396228D01*
X182588972Y-77396228D02*
X182541353Y-77300990D01*
X182541353Y-77300990D02*
X182493734Y-77253371D01*
X182493734Y-77253371D02*
X182398496Y-77205752D01*
X182398496Y-77205752D02*
X182208020Y-77205752D01*
X182208020Y-77205752D02*
X182112782Y-77253371D01*
X181684210Y-77872419D02*
X181684210Y-76872419D01*
X181588972Y-77491466D02*
X181303258Y-77872419D01*
X181303258Y-77205752D02*
X181684210Y-77586704D01*
X180160400Y-77824800D02*
X180017543Y-77872419D01*
X180017543Y-77872419D02*
X179779448Y-77872419D01*
X179779448Y-77872419D02*
X179684210Y-77824800D01*
X179684210Y-77824800D02*
X179636591Y-77777180D01*
X179636591Y-77777180D02*
X179588972Y-77681942D01*
X179588972Y-77681942D02*
X179588972Y-77586704D01*
X179588972Y-77586704D02*
X179636591Y-77491466D01*
X179636591Y-77491466D02*
X179684210Y-77443847D01*
X179684210Y-77443847D02*
X179779448Y-77396228D01*
X179779448Y-77396228D02*
X179969924Y-77348609D01*
X179969924Y-77348609D02*
X180065162Y-77300990D01*
X180065162Y-77300990D02*
X180112781Y-77253371D01*
X180112781Y-77253371D02*
X180160400Y-77158133D01*
X180160400Y-77158133D02*
X180160400Y-77062895D01*
X180160400Y-77062895D02*
X180112781Y-76967657D01*
X180112781Y-76967657D02*
X180065162Y-76920038D01*
X180065162Y-76920038D02*
X179969924Y-76872419D01*
X179969924Y-76872419D02*
X179731829Y-76872419D01*
X179731829Y-76872419D02*
X179588972Y-76920038D01*
X179160400Y-77872419D02*
X179160400Y-77205752D01*
X179160400Y-76872419D02*
X179208019Y-76920038D01*
X179208019Y-76920038D02*
X179160400Y-76967657D01*
X179160400Y-76967657D02*
X179112781Y-76920038D01*
X179112781Y-76920038D02*
X179160400Y-76872419D01*
X179160400Y-76872419D02*
X179160400Y-76967657D01*
X178255639Y-77872419D02*
X178255639Y-76872419D01*
X178255639Y-77824800D02*
X178350877Y-77872419D01*
X178350877Y-77872419D02*
X178541353Y-77872419D01*
X178541353Y-77872419D02*
X178636591Y-77824800D01*
X178636591Y-77824800D02*
X178684210Y-77777180D01*
X178684210Y-77777180D02*
X178731829Y-77681942D01*
X178731829Y-77681942D02*
X178731829Y-77396228D01*
X178731829Y-77396228D02*
X178684210Y-77300990D01*
X178684210Y-77300990D02*
X178636591Y-77253371D01*
X178636591Y-77253371D02*
X178541353Y-77205752D01*
X178541353Y-77205752D02*
X178350877Y-77205752D01*
X178350877Y-77205752D02*
X178255639Y-77253371D01*
X177398496Y-77824800D02*
X177493734Y-77872419D01*
X177493734Y-77872419D02*
X177684210Y-77872419D01*
X177684210Y-77872419D02*
X177779448Y-77824800D01*
X177779448Y-77824800D02*
X177827067Y-77729561D01*
X177827067Y-77729561D02*
X177827067Y-77348609D01*
X177827067Y-77348609D02*
X177779448Y-77253371D01*
X177779448Y-77253371D02*
X177684210Y-77205752D01*
X177684210Y-77205752D02*
X177493734Y-77205752D01*
X177493734Y-77205752D02*
X177398496Y-77253371D01*
X177398496Y-77253371D02*
X177350877Y-77348609D01*
X177350877Y-77348609D02*
X177350877Y-77443847D01*
X177350877Y-77443847D02*
X177827067Y-77539085D01*
X176922305Y-77777180D02*
X176874686Y-77824800D01*
X176874686Y-77824800D02*
X176922305Y-77872419D01*
X176922305Y-77872419D02*
X176969924Y-77824800D01*
X176969924Y-77824800D02*
X176922305Y-77777180D01*
X176922305Y-77777180D02*
X176922305Y-77872419D01*
X176922305Y-77491466D02*
X176969924Y-76920038D01*
X176969924Y-76920038D02*
X176922305Y-76872419D01*
X176922305Y-76872419D02*
X176874686Y-76920038D01*
X176874686Y-76920038D02*
X176922305Y-77491466D01*
X176922305Y-77491466D02*
X176922305Y-76872419D01*
M02*
